<?xml version="1.0" encoding="UTF-8"?>
<!-- Created with Inkscape (http://www.inkscape.org/) -->
<svg width="345.27mm" height="119.25mm" version="1.1" viewBox="-25 -20 1375 474.89" xml:space="preserve" xmlns="http://www.w3.org/2000/svg"><g transform="translate(-99.236 -309.05)"><path d="m133.47 642.63c-16.925-6.4548-28.886-22.804-28.886-42.05v-137.11c0-24.93 20.07-45 45-45h202.74c24.93 0 45 20.07 45 45v137.11c0 24.93-20.07 45-45 45l-44.806 1e-5" fill="none" stroke="#FFF" stroke-width="10.694"/><path d="m157.77 486.66c-5.5755-1.0393-9.7707-5.9093-9.7707-11.795v-11.694c0-6.648 5.352-12 12-12h180.37c6.648 0 12 5.352 12 12v11.694c0 6.648-5.352 12-12 12h-1.3439" fill="none" stroke="#FFF" stroke-width="8.555"/><text transform="scale(.97649 1.0241)" x="454.03299" y="564.58832" fill="#FFFFFF" font-family="Garamond" font-size="354.18px" stroke-width="36.894" xml:space="preserve"><tspan x="454.03299" y="564.58832" font-family="CooperLtBT-Regular" stroke-width="36.894">Scribe</tspan></text><g transform="matrix(.93376 .1454 -.14092 .90499 77.156 165.16)" fill="none" stroke="#FFF"><path transform="translate(-5.8905e-7)" d="m153.61 307.7 159.37-25.447c9.2929-1.4839 13.787 6.2653 13.397 15.959l-8.7879 218.59c-0.38973 9.6941-7.5704 17.513-16.974 17.513h-147c-9.4036 0-16.974-7.811-16.974-17.513v-191.59c0-9.7024 7.681-16.03 16.974-17.513z" stroke-width="5.7472"/><g id="line" transform="matrix(2.1614 .029515 -.028605 2.2301 151.18 311.92)" stroke-linecap="round" stroke-linejoin="round" stroke-miterlimit="10" stroke-width="2"><path d="m20 32 2.1418-11.16 0.6996 4.1763c0.1122 0.6679 2.3298 13.906 2.3298 13.906 0.2615 1.5604 1.6435 2.8154 3.5205 3.1974l11.308 2.3011-11.316 2.3026c-1.8724 0.381-3.2513 1.6356-3.5127 3.1963l-3.029 18.081-3.029-18.081c-0.2615-1.5607-1.6405-2.8153-3.5131-3.1964l-11.316-2.3025 11.317-2.3031c1.872-0.3812 3.138-2.557 3.3993-4.1174"/><path d="m42.556 13.45 1.5469-8.0604 0.5052 3.0162c0.081 0.4824 1.6827 10.043 1.6827 10.043 0.1889 1.1269 1.1869 2.0334 2.5426 2.3092l8.167 1.662-8.1728 1.663c-1.3523 0.2752-2.3482 1.1812-2.5369 2.3084l-2.1876 13.059-2.1876-13.058c-0.1889-1.1272-1.1848-2.0333-2.5372-2.3085l-8.173-1.6629 8.1735-1.6634c1.352-0.2753 2.2663-1.8467 2.455-2.9736"/><path d="m53.848 44.267 1.2335-6.4275 0.4029 2.4052c0.0646 0.3847 1.3418 8.0084 1.3418 8.0084 0.1506 0.8986 0.9465 1.6215 2.0275 1.8414l6.5126 1.3253-6.5171 1.3261c-1.0783 0.2194-1.8725 0.9419-2.023 1.8408l-1.7445 10.413-1.7445-10.413c-0.1506-0.8988-0.9448-1.6214-2.0232-1.8409l-6.5174-1.326 6.5177-1.3264c1.0781-0.2195 1.8072-1.4726 1.9577-2.3712"/></g></g><text x="378.4473" y="757.57068" fill="#FFFFFF" font-family="BARABARA-FINAL" font-size="138.24px" stroke-linecap="round" stroke-linejoin="round" stroke-width="7.2002" xml:space="preserve"><tspan x="378.4473" y="757.57068" stroke-width="7.2002"/></text><path d="m488.98 699.42h32.573l7.3892-31.065h-39.962v-21.564h30.311c18.397 0 30.612-14.929 30.612-33.477h-61.224c-17.945 0-32.573 14.627-32.573 32.723v77.36c0 17.794 14.175 31.969 31.969 31.969h21.866c18.397 0 32.723-14.929 32.723-33.477h-53.684zm147.78-64.542-20.961 76.304-20.81-76.304c-4.8256-15.532-22.318-23.826-39.208-18.548l37.247 120.34c1.508 5.1272 4.524 9.3495 8.2939 12.667 4.0716 3.4684 8.8971 6.032 14.477 6.032 5.5796 0 10.556-2.5636 14.628-6.032 3.77-3.3176 6.6352-7.54 8.2939-12.667l37.247-120.34c-16.889-5.278-34.382 3.016-39.208 18.548zm141.9-8.5955c-0.90478-1.9604-2.4128-3.9208-4.524-5.7304-5.7304-5.5796-13.723-8.2939-22.318-9.0479-5.1272-0.45241-20.056-0.754-25.787-0.754-6.1828 0-11.762 0.30159-17.191 0.754-17.191 1.6588-31.366 13.723-31.366 30.612v84.749c0 5.7304 1.6588 11.159 4.524 15.683 0.90481 2.1112 2.4128 3.9208 4.524 5.7304 5.7304 5.5796 13.723 8.2939 22.318 9.0479 5.1272 0.45241 10.556 0.754 16.437 0.754 6.032 0 21.112-0.1508 26.541-0.754 17.191-1.508 31.366-13.572 31.366-30.461v-84.749c0-5.7304-1.6588-11.159-4.524-15.834zm-26.842 90.932v0c-0.75399 4.6748-3.77 7.9923-8.7463 7.9923v0h-25.485v0c-4.8256 0-7.9924-3.3176-8.7463-7.9923v-66.352c0.75399-4.6748 3.77-7.9924 8.7463-7.9924h25.485c4.9764 0 7.9924 3.3176 8.7463 8.1431v0zm79.923-103.45c-18.247 0-33.176 13.572-33.176 30.461v110.84 0 0.30161h60.169c16.889 0 30.461-14.778 30.461-33.176h-57.454zm151.85 4.6748c-10.707 5.1272-18.096 15.381-18.096 27.295v76.153c0 4.3732-3.4684 8.1431-7.9924 8.2939h-0.1508v0h-4.0716v0h-13.12v0c-2.4128 0-4.3732-0.754-5.7304-2.1112-1.6588-1.508-2.5636-3.6192-2.5636-5.8812v-76.455c0-11.612-7.0875-21.866-17.493-26.993-4.8256-2.4128-10.254-3.9208-16.135-3.9208v112.5c0 7.9924 3.3176 15.382 8.8971 20.81 0.6032 0.6032 1.2064 1.2064 1.9604 1.8096 5.5796 5.5796 13.572 8.2939 22.318 9.0479 4.9764 0.4524 10.556 0.75401 16.286 0.75401h4.9764c7.2383 0 9.3495-0.30161 13.421-0.75401 5.5796-0.45239 10.707-1.9604 15.08-4.3732 10.707-5.278 17.945-15.532 17.945-27.295v-112.5c-5.5796 0-10.858 1.3572-15.532 3.6192zm53.684-4.0716c-16.89 0-30.461 12.516-30.461 30.763h39.359v110.23c18.247 0 33.025-13.572 33.025-30.311v-79.923h8.8971c16.89 0 30.462-12.516 30.462-30.763zm81.884 29.255v112.35c18.247 0 32.874-13.572 32.874-30.16v-112.35c-18.096 0-32.874 13.572-32.874 30.16zm149.59-17.342c-0.9048-1.9604-2.4128-3.9208-4.5239-5.7304-5.7304-5.5796-13.723-8.2939-22.318-9.0479-5.1273-0.45241-20.056-0.754-25.787-0.754-6.1827 0-11.762 0.30159-17.191 0.754-17.191 1.6588-31.366 13.723-31.366 30.612v84.749c0 5.7304 1.6588 11.159 4.524 15.683 0.9047 2.1112 2.4127 3.9208 4.5239 5.7304 5.7304 5.5796 13.723 8.2939 22.318 9.0479 5.1273 0.45241 10.556 0.754 16.437 0.754 6.032 0 21.112-0.1508 26.541-0.754 17.191-1.508 31.366-13.572 31.366-30.461v-84.749c0-5.7304-1.6588-11.159-4.524-15.834zm-26.842 90.932v0c-0.7542 4.6748-3.7701 7.9923-8.7464 7.9923v0h-25.485v0c-4.8257 0-7.9924-3.3176-8.7465-7.9923v-66.352c0.7541-4.6748 3.7701-7.9924 8.7465-7.9924h25.485c4.9763 0 7.9922 3.3176 8.7464 8.1431v0zm130.74-72.987v51.875l-57.304-82.638c-17.04 0-30.763 13.874-30.763 30.763v111.89c17.04 0 30.763-13.723 30.763-30.763v-57.153l57.304 76.757v11.159c17.04 0 31.517-13.874 31.517-30.914v-111.74c-17.04 0-31.517 13.874-31.517 30.763z" fill="#FFFFFF" stroke-linecap="round" stroke-linejoin="round" stroke-width="7.8541" aria-label="EVOLUTION"/></g></svg>
