<?xml version="1.0" encoding="UTF-8" standalone="no"?>
<!-- Created with Inkscape (http://www.inkscape.org/) -->

<svg
   width="327.67566mm"
   height="113.16966mm"
   viewBox="-25 -20 1304.945 450.69012"
   version="1.1"
   id="svg1"
   xml:space="preserve"
   xmlns="http://www.w3.org/2000/svg"
   xmlns:svg="http://www.w3.org/2000/svg"><defs
     id="defs1" /><g
     id="layer1"
     transform="translate(-124.2364,-329.05368)"><path
       id="rect1"
       style="fill:none;stroke:#000000;stroke-width:10.6937;stroke-opacity:1"
       d="m 133.46955,642.63388 c -16.92478,-6.45481 -28.8863,-22.80438 -28.8863,-42.0504 V 463.47076 c 0,-24.92998 20.07002,-45 45,-45 v 0 h 202.74304 c 24.92998,0 45,20.07002 45,45 v 137.11272 c 0,24.92998 -20.07002,45 -45,45 l -44.80613,10e-6" /><path
       id="rect24"
       style="fill:none;stroke:#000000;stroke-width:8.55498;stroke-opacity:1"
       d="m 157.77047,486.65797 c -5.57551,-1.0393 -9.77067,-5.90926 -9.77067,-11.79507 v -11.69402 c 0,-6.64799 5.35201,-12 12,-12 v 0 h 180.36633 c 6.64799,0 12,5.35201 12,12 v 11.69402 c 0,6.64799 -5.35201,12 -12,12 h -1.34387" /><text
       xml:space="preserve"
       style="font-style:normal;font-variant:normal;font-weight:normal;font-stretch:normal;font-size:354.179px;font-family:Garamond;-inkscape-font-specification:Garamond;fill:#000000;stroke:none;stroke-width:36.8935;stroke-dasharray:none"
       x="454.03299"
       y="564.58832"
       id="text23"
       transform="scale(0.97648898,1.0240771)"><tspan
         id="tspan23"
         x="454.03299"
         y="564.58832"
         style="font-style:normal;font-variant:normal;font-weight:normal;font-stretch:normal;font-family:CooperLtBT-Regular;-inkscape-font-specification:CooperLtBT-Regular;stroke-width:36.8935">Scribe</tspan></text><g
       id="g27"
       transform="matrix(0.93376015,0.14540031,-0.14092113,0.90499487,77.156024,165.159)"
       style="fill:none;stroke:#000000;stroke-width:5.74719;stroke-dasharray:none;stroke-opacity:1"><path
         id="path5"
         style="display:inline;opacity:1;fill:none;stroke:#000000;stroke-width:5.74719;stroke-dasharray:none;stroke-opacity:1"
         d="m 153.61027,307.70084 159.36892,-25.44742 c 9.29294,-1.48386 13.7871,6.26527 13.39737,15.95939 l -8.78791,218.59227 c -0.38973,9.69411 -7.57037,17.51345 -16.97393,17.51345 H 153.61027 c -9.40356,0 -16.97393,-7.811 -16.97393,-17.51345 v -191.5908 c 0,-9.70245 7.68099,-16.02958 16.97393,-17.51344 z" /><g
         id="line"
         transform="matrix(2.161427,0.02951453,-0.02860532,2.230128,151.17586,311.92198)"
         style="display:inline;fill:none;stroke:#000000;stroke-opacity:1"><path
           fill="none"
           stroke="#000000"
           stroke-linecap="round"
           stroke-linejoin="round"
           stroke-miterlimit="10"
           stroke-width="2"
           d="m 47.504168,16.520977 2.559749,-13.432446 0.84225,5.0276471 c 0.135077,0.804053 2.804851,16.7401649 2.804851,16.7401649 0.31482,1.878491 1.973131,3.390243 4.224372,3.851536 l 13.562982,2.778746 -13.568727,2.762817 c -2.245128,0.457149 -3.897753,1.966257 -4.210007,3.844699 L 50.101364,59.856602 46.454743,38.090235 C 46.139923,36.211383 44.48521,34.700114 42.239246,34.239908 L 28.66643,31.459471 42.236356,28.696053 c 2.244647,-0.457391 3.761159,-3.075455 4.073292,-4.953535"
           id="path1"
           style="fill:none;stroke:#000000;stroke-width:2.57908;stroke-dasharray:none;stroke-opacity:1" /><path
           fill="none"
           stroke="#000000"
           stroke-linecap="round"
           stroke-linejoin="round"
           stroke-miterlimit="10"
           stroke-width="2"
           d="m 15.87711,60.486467 1.401201,-7.558484 0.474442,2.831627 c 0.07609,0.452852 1.579975,9.428249 1.579975,9.428249 0.177338,1.057988 1.099576,1.911416 2.349305,2.174304 l 7.529204,1.583592 -7.524534,1.536153 c -1.245035,0.25418 -2.159835,1.101425 -2.330422,2.158495 l -1.9767,12.246562 -2.054149,-12.259062 c -0.177338,-1.05819 -1.09758,-1.911341 -2.344379,-2.17361 l -7.5346626,-1.584558 7.5251986,-1.53649 c 1.244767,-0.254317 2.082474,-1.726067 2.252995,-2.782934"
           id="path4"
           style="display:inline;fill:none;stroke:#000000;stroke-width:2.06326;stroke-dasharray:none;stroke-opacity:1" /><path
           fill="none"
           stroke="#000000"
           stroke-linecap="round"
           stroke-linejoin="round"
           stroke-miterlimit="10"
           stroke-width="2"
           d="m 42.5556,13.4499 1.5469,-8.0604 0.5052,3.0162 c 0.081,0.4824 1.6827,10.0429 1.6827,10.0429 0.1889,1.1269 1.1869,2.0334 2.5426,2.3092 l 8.167,1.662 -8.1728,1.663 C 47.4749,24.358 46.479,25.264 46.2903,26.3912 L 44.1027,39.4499 41.9151,26.3917 c -0.1889,-1.1272 -1.1848,-2.0333 -2.5372,-2.3085 l -8.173,-1.6629 8.1735,-1.6634 c 1.352,-0.2753 2.2663,-1.8467 2.455,-2.9736"
           id="path2"
           style="display:none;fill:none;stroke:#000000;stroke-opacity:1" /><path
           fill="none"
           stroke="#000000"
           stroke-linecap="round"
           stroke-linejoin="round"
           stroke-miterlimit="10"
           stroke-width="2"
           d="m 53.8482,44.267 1.2335,-6.4275 0.4029,2.4052 c 0.0646,0.3847 1.3418,8.0084 1.3418,8.0084 0.1506,0.8986 0.9465,1.6215 2.0275,1.8414 l 6.5126,1.3253 -6.5171,1.3261 c -1.0783,0.2194 -1.8725,0.9419 -2.023,1.8408 L 55.0819,65 53.3374,54.5871 c -0.1506,-0.8988 -0.9448,-1.6214 -2.0232,-1.8409 l -6.5174,-1.326 6.5177,-1.3264 c 1.0781,-0.2195 1.8072,-1.4726 1.9577,-2.3712"
           id="path3"
           style="display:none;fill:none;stroke:#000000;stroke-opacity:1" /></g></g><path
       d="m 488.98247,699.42422 h 32.57256 l 7.38915,-31.06457 h -39.96171 v -21.56426 h 30.31058 c 18.39746,0 30.61219,-14.92909 30.61219,-33.47736 h -61.22439 c -17.94508,0 -32.57257,14.62749 -32.57257,32.72336 v 77.35988 c 0,17.79428 14.17511,31.96938 31.96937,31.96938 h 21.86586 c 18.39747,0 32.72338,-14.9291 32.72338,-33.47737 h -53.68442 z m 147.783,-64.54195 -20.96105,76.30427 -20.81027,-76.30427 C 590.16859,619.34998 572.67592,611.05604 555.78642,616.334 l 37.24736,120.33758 c 1.50799,5.12716 4.52396,9.34952 8.29394,12.66711 4.07156,3.46837 8.89714,6.03196 14.4767,6.03196 5.57957,0 10.55592,-2.56359 14.6275,-6.03196 3.76998,-3.31759 6.63515,-7.53995 8.29394,-12.66711 L 675.9732,616.334 c -16.88948,-5.27796 -34.38217,3.01598 -39.20773,18.54827 z m 141.90192,-8.59554 c -0.90478,-1.96037 -2.41278,-3.92076 -4.52397,-5.73035 -5.73037,-5.57957 -13.72272,-8.29394 -22.31826,-9.04793 -5.12717,-0.45241 -20.05626,-0.754 -25.78661,-0.754 -6.18275,0 -11.76232,0.30159 -17.19108,0.754 -17.1911,1.65878 -31.36619,13.72269 -31.36619,30.61217 v 84.74903 c 0,5.73035 1.6588,11.15913 4.52396,15.68309 0.90481,2.11117 2.41279,3.92077 4.52397,5.73035 5.73036,5.57957 13.72273,8.29394 22.31826,9.04793 5.12716,0.45241 10.55592,0.754 16.43709,0.754 6.03195,0 21.11185,-0.1508 26.5406,-0.754 17.19108,-1.50799 31.3662,-13.57189 31.3662,-30.46137 v -84.74903 c 0,-5.73035 -1.65879,-11.15913 -4.52397,-15.83389 z m -26.84223,90.93179 v 0 c -0.75399,4.67476 -3.76997,7.99234 -8.74634,7.99234 v 0 h -25.48501 v 0 c -4.82557,0 -7.99235,-3.31758 -8.74634,-7.99234 v 0 -66.35154 0 c 0.75399,-4.67478 3.76997,-7.99237 8.74634,-7.99237 h 25.48501 c 4.97637,0 7.99235,3.31759 8.74634,8.14314 v 0 z m 79.92337,-103.44809 c -18.24667,0 -33.17578,13.5719 -33.17578,30.46137 v 110.83724 c 0,0 0,0 0,0 0,0.1508 0,0.30161 0,0.30161 h 60.16879 c 16.88948,0 30.46138,-14.7783 30.46138,-33.17577 h -57.45439 z m 151.85474,4.67476 c -10.70673,5.12717 -18.09587,15.38149 -18.09587,27.29461 v 76.15348 c 0,4.37317 -3.46839,8.14314 -7.99235,8.29394 0,0 0,0 -0.1508,0 v 0 h -4.07157 v 0 h -13.11951 v 0 c -2.41278,0 -4.37317,-0.754 -5.73035,-2.11119 -1.6588,-1.50799 -2.5636,-3.61916 -2.5636,-5.88115 V 645.7398 c 0,-11.61151 -7.08754,-21.86585 -17.49268,-26.99301 -4.82556,-2.41279 -10.25433,-3.92078 -16.13548,-3.92078 v 112.49602 c 0,7.99236 3.31758,15.38151 8.89713,20.81026 0.6032,0.6032 1.2064,1.2064 1.96039,1.80959 5.57956,5.57957 13.5719,8.29394 22.31826,9.04793 4.97636,0.4524 10.55593,0.75401 16.28628,0.75401 1.35719,0 3.01597,0 4.97636,0 7.23834,0 9.34953,-0.30161 13.42111,-0.75401 5.57956,-0.45239 10.70673,-1.96038 15.07989,-4.37315 10.70674,-5.27797 17.9451,-15.5323 17.9451,-27.29463 V 614.82601 c -5.57957,0 -10.85753,1.3572 -15.53231,3.61918 z m 53.68433,-4.07158 c -16.8895,0 -30.4614,12.51632 -30.4614,30.76299 h 39.3586 v 110.23405 c 18.2466,0 33.0249,-13.57191 33.0249,-30.31059 V 645.1366 h 8.8971 c 16.8896,0 30.4616,-12.5163 30.4616,-30.76299 z m 81.884,29.255 v 112.34522 c 18.2467,0 32.8741,-13.5719 32.8741,-30.15979 V 613.46882 c -18.0958,0 -32.8741,13.57191 -32.8741,30.15979 z m 149.5924,-17.34188 c -0.9048,-1.96037 -2.4128,-3.92076 -4.5239,-5.73035 -5.7304,-5.57957 -13.7228,-8.29394 -22.3182,-9.04793 -5.1273,-0.45241 -20.0564,-0.754 -25.7867,-0.754 -6.1827,0 -11.7624,0.30159 -17.1912,0.754 -17.191,1.65878 -31.3661,13.72269 -31.3661,30.61217 v 84.74903 c 0,5.73035 1.6588,11.15913 4.524,15.68309 0.9047,2.11117 2.4127,3.92077 4.5239,5.73035 5.7304,5.57957 13.7227,8.29394 22.3182,9.04793 5.1273,0.45241 10.556,0.754 16.4372,0.754 6.032,0 21.1119,-0.1508 26.5407,-0.754 17.191,-1.50799 31.3661,-13.57189 31.3661,-30.46137 v -84.74903 c 0,-5.73035 -1.6588,-11.15913 -4.524,-15.83389 z m -26.8421,90.93179 v 0 c -0.7542,4.67476 -3.7701,7.99234 -8.7464,7.99234 v 0 h -25.485 v 0 c -4.8257,0 -7.9924,-3.31758 -8.7465,-7.99234 v 0 -66.35154 0 c 0.7541,-4.67478 3.7701,-7.99237 8.7465,-7.99237 h 25.485 c 4.9763,0 7.9922,3.31759 8.7464,8.14314 v 0 z m 130.7425,-72.98672 v 51.87485 l -57.3037,-82.63783 c -17.0402,0 -30.7629,13.87351 -30.7629,30.76298 v 111.89285 c 17.0403,0 30.7629,-13.72272 30.7629,-30.76299 v -57.15281 l 57.3037,76.75667 v 11.15913 c 17.0403,0 31.517,-13.87351 31.517,-30.91379 V 613.46882 c -17.0405,0 -31.517,13.87351 -31.517,30.76298 z"
       id="text3"
       style="font-size:88.202px;font-family:BARABARA-FINAL;-inkscape-font-specification:BARABARA-FINAL;display:inline;stroke-width:7.85409;stroke-linecap:round;stroke-linejoin:round"
       aria-label="EVOLUTION" /></g></svg>
