<?xml version="1.0" encoding="UTF-8" standalone="no"?>
<!-- Created with Inkscape (http://www.inkscape.org/) -->

<svg
   width="76.193893mm"
   height="70.842506mm"
   viewBox="-25 -20 303.43675 282.12523"
   version="1.1"
   id="svg1"
   inkscape:version="1.3.2 (091e20e, 2023-11-25)"
   sodipodi:docname="FavIconSource.svg"
   xml:space="preserve"
   inkscape:export-filename="FavIconSource.png"
   inkscape:export-xdpi="341.36069"
   inkscape:export-ydpi="341.36069"
   xmlns:inkscape="http://www.inkscape.org/namespaces/inkscape"
   xmlns:sodipodi="http://sodipodi.sourceforge.net/DTD/sodipodi-0.dtd"
   xmlns="http://www.w3.org/2000/svg"
   xmlns:svg="http://www.w3.org/2000/svg"><sodipodi:namedview
     id="namedview1"
     pagecolor="#ffffff"
     bordercolor="#000000"
     borderopacity="0.58823529"
     inkscape:showpageshadow="2"
     inkscape:pageopacity="0.0"
     inkscape:pagecheckerboard="0"
     inkscape:deskcolor="#d1d1d1"
     inkscape:document-units="px"
     inkscape:zoom="0.83052185"
     inkscape:cx="335.33133"
     inkscape:cy="3.6121867"
     inkscape:window-width="2144"
     inkscape:window-height="1195"
     inkscape:window-x="1561"
     inkscape:window-y="103"
     inkscape:window-maximized="0"
     inkscape:current-layer="layer1"
     showgrid="false"
     inkscape:export-bgcolor="#ffffff00" /><defs
     id="defs1"><rect
       x="593"
       y="257"
       width="297"
       height="127"
       id="rect21" /></defs><g
     inkscape:label="Layer 1"
     inkscape:groupmode="layer"
     id="layer1"
     transform="translate(-124.2364,-433.12391)"><path
       id="rect1"
       style="display:none;fill:none;stroke:#000000;stroke-width:10.6937;stroke-opacity:1"
       inkscape:label="Main printer box"
       d="m 133.46955,642.63388 c -16.92478,-6.45481 -28.8863,-22.80438 -28.8863,-42.0504 V 463.47076 c 0,-24.92998 20.07002,-45 45,-45 v 0 h 202.74304 c 24.92998,0 45,20.07002 45,45 v 137.11272 c 0,24.92998 -20.07002,45 -45,45 l -44.80613,10e-6"
       inkscape:export-filename="FavIconSource.svg"
       inkscape:export-xdpi="341.36069"
       inkscape:export-ydpi="341.36069" /><path
       id="rect24"
       style="display:none;fill:none;stroke:#000000;stroke-width:8.55498;stroke-opacity:1"
       inkscape:label="Paper output hole"
       d="m 157.77047,486.65797 c -5.57551,-1.0393 -9.77067,-5.90926 -9.77067,-11.79507 v -11.69402 c 0,-6.64799 5.35201,-12 12,-12 v 0 h 180.36633 c 6.64799,0 12,5.35201 12,12 v 11.69402 c 0,6.64799 -5.35201,12 -12,12 h -1.34387" /><g
       id="g27"
       inkscape:label="Paper"
       transform="matrix(0.93376015,0.14540031,-0.14092113,0.90499487,77.156024,165.159)"
       style="fill:none;stroke:#000000;stroke-width:5.74719;stroke-dasharray:none;stroke-opacity:1"><path
         id="path5"
         style="display:none;opacity:1;fill:none;stroke:#000000;stroke-width:5.74719;stroke-dasharray:none;stroke-opacity:1"
         inkscape:label="Paper coming out"
         d="m 153.61027,307.70084 159.36892,-25.44742 c 9.29294,-1.48386 13.7871,6.26527 13.39737,15.95939 l -8.78791,218.59227 c -0.38973,9.69411 -7.57037,17.51345 -16.97393,17.51345 H 153.61027 c -9.40356,0 -16.97393,-7.811 -16.97393,-17.51345 v -191.5908 c 0,-9.70245 7.68099,-16.02958 16.97393,-17.51344 z"
         sodipodi:nodetypes="sssssssss" /><g
         id="line"
         transform="matrix(2.161427,0.02951453,-0.02860532,2.230128,151.17586,311.92198)"
         inkscape:label="Sparkles"
         style="display:inline;fill:none;stroke:#000000;stroke-opacity:1"><path
           fill="none"
           stroke="#000000"
           stroke-linecap="round"
           stroke-linejoin="round"
           stroke-miterlimit="10"
           stroke-width="2"
           d="m 60.626735,-5.8900534 3.846071,-20.1633006 1.264246,7.546709 c 0.202755,1.206918 4.210175,25.1276856 4.210175,25.1276856 0.472555,2.8196937 2.962846,5.0887114 6.343753,5.7808434 l 20.368841,4.169281 -20.378203,4.148964 c -3.371848,0.686507 -5.853999,2.951994 -6.323199,5.771698 l -5.436892,32.667328 -5.4737,-32.672229 C 58.575272,23.66669 56.090384,21.398397 52.717403,20.707896 L 32.333791,16.536078 52.713797,12.386212 c 3.371125,-0.686871 5.649005,-4.616954 6.118023,-7.4361139"
           id="path1"
           style="fill:none;stroke:#000000;stroke-width:5.15815261;stroke-dasharray:none;stroke-opacity:1"
           inkscape:label="Big sparkle" /><path
           fill="none"
           stroke="#000000"
           stroke-linecap="round"
           stroke-linejoin="round"
           stroke-miterlimit="10"
           stroke-width="2"
           d="m 13.122641,60.109155 2.105358,-11.345954 0.712153,4.250391 c 0.114214,0.679749 2.371596,14.152196 2.371596,14.152196 0.26619,1.588085 1.651116,2.869013 3.527954,3.263459 l 11.307329,2.376076 -11.300729,2.306861 c -1.869857,0.381705 -3.243837,1.653595 -3.500169,3.240348 L 15.375856,96.735668 12.292509,78.334302 c -0.26619,-1.588387 -1.648118,-2.8689 -3.5205563,-3.262417 L -2.5435753,72.694359 8.7581527,70.386993 C 10.627607,70.005082 11.885891,67.79578 12.142123,66.209332"
           id="path4"
           style="display:inline;fill:none;stroke:#000000;stroke-width:4.12652209;stroke-dasharray:none;stroke-opacity:1"
           inkscape:label="Little sparkle" /><path
           fill="none"
           stroke="#000000"
           stroke-linecap="round"
           stroke-linejoin="round"
           stroke-miterlimit="10"
           stroke-width="2"
           d="m 42.5556,13.4499 1.5469,-8.0604 0.5052,3.0162 c 0.081,0.4824 1.6827,10.0429 1.6827,10.0429 0.1889,1.1269 1.1869,2.0334 2.5426,2.3092 l 8.167,1.662 -8.1728,1.663 C 47.4749,24.358 46.479,25.264 46.2903,26.3912 L 44.1027,39.4499 41.9151,26.3917 c -0.1889,-1.1272 -1.1848,-2.0333 -2.5372,-2.3085 l -8.173,-1.6629 8.1735,-1.6634 c 1.352,-0.2753 2.2663,-1.8467 2.455,-2.9736"
           id="path2"
           style="display:none;fill:none;stroke:#000000;stroke-opacity:1" /><path
           fill="none"
           stroke="#000000"
           stroke-linecap="round"
           stroke-linejoin="round"
           stroke-miterlimit="10"
           stroke-width="2"
           d="m 53.8482,44.267 1.2335,-6.4275 0.4029,2.4052 c 0.0646,0.3847 1.3418,8.0084 1.3418,8.0084 0.1506,0.8986 0.9465,1.6215 2.0275,1.8414 l 6.5126,1.3253 -6.5171,1.3261 c -1.0783,0.2194 -1.8725,0.9419 -2.023,1.8408 L 55.0819,65 53.3374,54.5871 c -0.1506,-0.8988 -0.9448,-1.6214 -2.0232,-1.8409 l -6.5174,-1.326 6.5177,-1.3264 c 1.0781,-0.2195 1.8072,-1.4726 1.9577,-2.3712"
           id="path3"
           style="display:none;fill:none;stroke:#000000;stroke-opacity:1" /></g></g><text
       xml:space="preserve"
       style="font-style:normal;font-variant:normal;font-weight:normal;font-stretch:normal;font-size:138.244px;font-family:BARABARA-FINAL;-inkscape-font-specification:BARABARA-FINAL;fill:#000000;stroke:none;stroke-width:7.2002;stroke-linecap:round;stroke-linejoin:round"
       x="378.4473"
       y="757.57068"
       id="text1"
       inkscape:label="Scribe (CooperBTMed)"><tspan
         sodipodi:role="line"
         x="378.4473"
         y="757.57068"
         style="stroke-width:7.2002"
         id="tspan2" /></text></g></svg>
