<?xml version="1.0" standalone="yes"?>
<svg xmlns="http://www.w3.org/2000/svg" width="966" height="374">
<path style="fill:#070707; stroke:none;" d="M695 199C701.258 202.008 704.871 198.405 711 199.028C716.617 199.598 722.348 204.362 728 205.844C736.628 208.106 745.323 208.278 754 206.335C780.349 200.434 797.971 174.426 797.971 148C797.971 117.344 773.654 91.7573 742 97.4645C731.956 99.2754 725.112 105.454 717 111C717 97.0065 718 83.0442 718 69C718 64.1279 719.362 56.7308 717.258 52.2284C715.714 48.9261 712.069 49.0649 709 49.6729C703.128 50.8363 688.289 53.3544 687.466 60.9097C687.007 65.1199 692.251 65.4274 694.956 66.6991C698.058 68.1574 699.515 70.6654 699.891 74.0008C701.947 92.2331 700.566 110.68 701.015 129C701.48 147.987 703.935 168.256 699.572 187C698.582 191.252 696.475 194.939 695 199M384 50.4391C373.527 52.0748 363.593 56.1339 356.301 64.0895C343.291 78.2834 342.19 103.99 356.09 117.91C372.024 133.866 397.022 134.109 413.999 148.326C422.674 155.59 426.66 166.122 422.235 177C412.451 201.059 375.237 202.108 361.221 181.996C356.732 175.556 356.312 167.384 352.005 161.059C350.366 158.651 347.366 156.281 344.394 158.047C341.142 159.98 341.013 164.691 341.008 168C340.994 176.2 342.03 188.406 347.394 194.957C351.491 199.96 357.969 202.401 364 204.14C375.644 207.496 387.877 209.312 400 207.572C408.797 206.309 417.598 203.469 425 198.48C430.938 194.477 435.822 189.338 439.204 183C441.814 178.107 442.585 173.424 443.166 168C443.693 163.072 443.854 158.913 442.904 154C438.18 129.568 410.508 122.827 391 114.139C377.84 108.278 362.388 98.9279 365.329 82C369.672 57.0026 402.278 56.6413 417.961 70.3256C422.129 73.9631 429.542 89.1358 436.721 84.9537C440.25 82.898 439.644 78.3794 439.282 75C438.426 67.0277 436.778 57.0492 429.674 51.8974C425.001 48.5079 421.478 53.1423 416.715 52.8912C405.581 52.3044 395.367 48.6637 384 50.4391M656.004 52.5725C648.984 54.5994 645.304 63.9972 650.434 69.7716C653.391 73.1006 658.86 73.7122 662.996 72.5663C676.072 68.9442 669.608 48.6445 656.004 52.5725M98 232C98 244.247 97.1353 256.848 98.7184 269C99.6251 275.96 100.925 282.708 106.105 287.895C114.793 296.595 126.777 295 138 295L211 295C222.615 295 235.095 296.322 243.787 286.907C248.192 282.135 249.386 276.196 250.271 270C252.045 257.583 251 244.531 251 232C261.223 232 271.11 232.314 281 229.225C311.194 219.796 303 179.663 303 156C303 132.824 307.815 101.569 280 92.1042C275.586 90.6022 270.64 90.0591 266 90.0038C217.682 89.429 169.322 90 121 90C106.805 90 92.0821 88.8884 78 90.7184C71.4725 91.5666 65.4951 92.6852 60.0008 96.6373C41.9982 109.587 45.9927 133.05 46 152C46.0102 178.461 37.9726 220.717 71 230.56C79.5569 233.11 89.1638 232 98 232M505 97.4391C489.524 99.8561 476.187 107.655 467.548 121C451.323 146.062 456.8 187.43 485 201.623C493.366 205.833 501.794 207.004 511 207C519.026 206.997 526.656 205.482 534 202.099C540.622 199.048 547.996 193.567 551.427 187C552.673 184.616 554.031 180.053 551.397 178.032C549.224 176.366 546.018 177.651 544 178.894C538.941 182.009 535.323 186.819 530 189.676C515.789 197.302 499.813 193.948 489.184 181.996C477.167 168.482 474.689 146.596 481.204 130C486.687 116.037 499.369 105.773 515 108.214C525.421 109.841 528.39 119.599 533.789 126.995C536.888 131.242 541.546 134.447 546.956 132.258C557.186 128.118 551.578 114.569 545.907 109.301C535.655 99.7786 518.76 95.29 505 97.4391M611 112C613.572 121.844 627.725 126.498 632.258 114.985C637.137 102.591 624.998 94.6283 614 97.7894C603.506 100.806 598.607 110.249 591 117C590.957 111.832 591.345 100.118 585.66 97.6072C580.096 95.1495 569.519 100.902 565.019 103.966C563.023 105.325 560.636 107.297 560.636 109.96C560.636 116.238 571.513 114.031 573.656 120.019C576.828 128.881 575.789 138.799 576.015 148C576.236 157.019 577.785 165.925 576.714 175C576.168 179.633 576.796 185.879 574.142 189.895C571.953 193.208 562.458 195.65 565.086 200.777C566.62 203.769 571.009 204.5 574 204.826C582.038 205.704 591.019 205.425 599 204.271C601.767 203.871 605.407 203.809 607.377 201.487C609.25 199.28 608.144 196.716 605.851 195.433C600.931 192.68 595.356 193.651 593.43 186.996C591.42 180.052 592 172.139 592 165C592 146.55 588.592 118.594 611 112M659 97.4653C653.614 98.3976 639.179 101.217 638.466 108.021C637.992 112.549 643.03 112.894 645.942 114.429C648.61 115.835 649.883 118.123 650.517 121.001C652.502 130.014 652 139.827 652 149C652 159.302 652.428 169.708 651.961 180C651.788 183.795 651.192 188.676 648.487 191.582C646.005 194.248 638.061 195.605 641.047 200.788C642.592 203.47 646.178 204.277 649 204.699C656.665 205.844 666.472 205.783 673.995 203.861C676.941 203.108 680.735 200.829 678.914 197.221C676.96 193.351 671.56 193.3 669.738 188.956C666.896 182.18 668 173.165 668 166C668 149.979 668.994 133.951 669 118C669.003 109.655 671.725 95.2624 659 97.4653M858 97.4391C845.394 99.4079 833.657 104.971 825.468 115.001C803.853 141.472 809.025 189.703 843 203.546C849.602 206.236 855.941 207.002 863 207C869.942 206.998 876.51 206.168 883 203.547C891.353 200.173 899.967 194.741 904.867 187C906.565 184.317 909.024 179.438 906.243 176.619C904.175 174.522 901.122 175.9 899.089 177.265C893.263 181.177 889.319 187.026 883 190.482C865.227 200.203 845.547 191.419 836.81 174C834.078 168.552 832.2 162.12 832.044 156C831.981 153.532 832.033 150.553 834.318 149.028C838.213 146.429 846.497 148 851 148L889 148C893.572 148 900.709 149.305 904.772 146.821C911.662 142.608 907.282 125.778 904.687 120C896.719 102.262 876.687 94.5205 858 97.4391M251 224L251 204C270.521 200.518 277.706 176.666 260.996 164.638C250.254 156.906 232.483 160 220 160L121 160C106.871 160 89.7627 157.969 81.2137 172.001C75.5118 181.359 79.0823 191.982 87.0039 198.787C89.8331 201.218 94.8783 202.443 96.9722 205.498C99.8208 209.655 98 219.113 98 224C88.4633 224 77.8747 225.325 69 221.081C49.6175 211.813 54 185.495 54 168L54 152C54 133.605 50.2205 107.486 72 99.6998C75.3029 98.519 78.5054 98.0468 82 98.0038C129.65 97.4187 177.346 98 225 98L259 98C267.037 98 275.986 97.9632 282.961 102.559C298.673 112.914 295 135.834 295 152C295 167.618 296.84 184.564 294.41 200C292.968 209.155 288.815 217.118 280 221.095C271.035 225.139 260.564 224 251 224M742 108.301C755.722 106.275 767.901 114.724 773.482 127C783.248 148.48 779.942 191.982 751 196.854C747.264 197.483 743.761 197.777 740 197.266C737.193 196.885 734.579 196.402 732 195.175C715.331 187.242 718 168.532 718 153C718 136.531 715.746 119.907 733 111.276C735.844 109.853 738.844 108.767 742 108.301M856 108.329C867.278 106.312 878.734 109.635 885.696 119.039C888.655 123.037 894.615 136.571 886.941 138.682C883.013 139.763 878.048 139 874 139L848 139C844.26 139 837.57 140.25 834.357 137.972C831.091 135.656 833.349 129.846 834.647 127C838.563 118.416 846.334 110.059 856 108.329M106 168C103.738 177.524 99.8378 186.246 98 196C87.9048 193.001 81.5418 180.811 90.3403 172.394C94.4743 168.439 100.601 168.045 106 168M119.015 168.434C127.285 166.111 138.429 168 147 168L206 168C213.832 168 228.523 165.156 234.471 171.279C241.937 178.965 242 191.058 242 201L242 262C242 271.779 241.086 282.72 230 286.196C221.684 288.803 210.655 287 202 287C182.06 287 161.919 286.167 142 287.039C131.718 287.49 119.031 289.915 111.394 280.906C105.236 273.642 107 262.817 107 254C107 233.156 105.632 211.79 107.09 191C107.612 183.549 110.722 170.763 119.015 168.434M250 196C249.999 185.227 245.881 178.002 243 168C248.787 168.048 255.453 168.582 259.581 173.214C267.405 181.992 260.143 194.163 250 196M124.337 193.028C118.103 197.425 129.235 199.98 132 199.999C152.331 200.139 172.668 200 193 200C198.041 200 210.492 202.242 214.238 198.258C216.491 195.863 214.63 193.06 211.941 192.318C207.727 191.156 202.345 192 198 192L145 192C139.779 192 128.744 189.92 124.337 193.028M196 223.428C177.697 225.576 158.431 224 140 224C136.341 224 122.58 221.929 122.752 227.95C122.928 234.155 137.11 232 141 232L182 232C188.113 232 196.055 233.334 201.941 231.566C205.258 230.571 206.59 227.178 203.677 224.742C201.507 222.926 198.614 223.121 196 223.428M499 232.424C494.11 233.074 489.281 233.311 485.04 236.133C472.129 244.727 477 268.649 477 282C477 291.01 475.25 303.265 481.638 310.671C489.578 319.876 510.058 318.316 521 316.699C542.277 313.555 538 290.888 538 275C538 265.427 540.42 251.909 536.467 243.015C530.817 230.303 510.677 230.872 499 232.424M789 232.424C784.11 233.074 779.28 233.311 775.04 236.133C762.129 244.727 767 268.649 767 282C767 291.01 765.25 303.265 771.638 310.671C779.578 319.876 800.058 318.316 811 316.699C832.277 313.555 828 290.888 828 275C828 265.427 830.42 251.909 826.467 243.015C820.817 230.303 800.677 230.872 789 232.424M395 297L376 297C373.254 297 369.731 297.524 367.148 296.397C363.345 294.736 362.797 287.41 365.603 284.603C369.557 280.65 377.034 284.617 381.697 282.397C386.053 280.322 386.456 270.214 387 266C381.944 266 368.185 268.414 365.028 263.682C363.179 260.912 364 256.169 364 253C376.173 253 393.794 256.009 398.351 241.002C399.042 238.725 398.979 236.351 399 234L371 234C364.703 234 358.39 233.715 353.04 237.649C348.657 240.872 346.31 245.64 346.04 251C345.373 264.264 346 277.718 346 291C346 298.731 345.615 306.114 352.094 311.606C356.994 315.76 362.907 315.998 369 316C382.284 316.005 394.288 312.537 395 297M547 316C564.326 316 598.4 322.526 599 297L578 297C575.083 297 570.882 297.683 568.318 295.972C564.286 293.282 566 284.164 566 280L566 234C558.012 234.702 550.308 238.9 547.803 247C545.652 253.959 547 262.78 547 270L547 316M609 234L609 283C609 290.102 607.408 299.474 610.688 305.999C617.379 319.31 639.606 319.359 652 315.557C656.726 314.108 661.36 311.355 663.911 306.985C667.631 300.611 666 291.091 666 284L666 234C662.179 234.791 658.294 235.613 655.015 237.854C643.153 245.965 647 265.626 647 278C647 288.901 649.396 302.291 634.005 299.852C625.286 298.47 628 285.398 628 279C628 261.268 632.301 237.444 609 234M671 252L693 252L693 316C695.748 315.628 698.427 315.144 700.999 314.045C713.712 308.613 712 295.49 712 284L712 252C724.223 251.992 733.826 247.357 735 234C719.447 234 702.366 232.014 687 234.439C677.097 236.002 671.24 241.801 671 252M739 316C746.781 315.364 754.449 311.96 757.146 304C759.458 297.174 758 288.134 758 281L758 234C750.185 234.358 742.69 238.014 740.305 246C737.949 253.888 739 262.867 739 271L739 316M837 316C861.242 313.87 855 283.185 855 266C863.039 276.13 870.614 286.654 878.373 297C882.929 303.073 887.809 308.109 888 316C895.856 315.31 903.31 311.127 905.442 303C907.292 295.949 906 287.252 906 280L906 234C882.471 236.067 888 264.197 888 281C879.966 269.784 872.108 258.404 864.344 247C861.663 243.061 858.204 235.26 852.961 234.423C844.701 233.104 838.058 243.015 837.185 250C836.25 257.481 837 265.466 837 273L837 316M404 235C404.66 242.573 407.733 249.787 409.975 257C414.317 270.975 418.764 284.952 422.86 299C425.02 306.411 428.932 315.301 438 315.508C447.225 315.718 450.643 306.133 452.999 299C457.264 286.091 460.992 272.983 465.025 260C467.536 251.92 471.262 243.451 472 235C466.106 235 460.003 234.491 455.185 238.558C450.507 242.507 449.367 248.396 447.849 254C444.779 265.335 439.957 277.277 439 289L437 289C435.955 277.013 431.03 264.552 427.709 253C426.244 247.902 425.128 242.18 420.812 238.638C415.918 234.623 409.934 235 404 235M499.109 251.434C501.271 250.768 503.769 251.004 506 251C509.386 250.994 514.717 250.049 517.682 252.028C520.002 253.576 519.949 256.516 519.995 259C520.108 264.995 520 271.003 520 277C520 281.91 522.368 294.988 516.852 297.397C514.531 298.41 511.466 297.999 509 298C505.572 298.002 500.422 298.878 497.434 296.821C494.915 295.087 495.042 291.717 495.004 289C494.915 282.669 495 276.331 495 270C495 264.906 492.748 253.393 499.109 251.434M789.109 251.434C791.271 250.768 793.769 251.004 796 251C799.386 250.994 804.717 250.049 807.682 252.028C810.002 253.576 809.949 256.516 809.995 259C810.108 264.995 810 271.003 810 277C810 281.91 812.368 294.988 806.852 297.397C804.531 298.41 801.466 297.999 799 298C795.572 298.002 790.422 298.878 787.434 296.821C784.915 295.087 785.042 291.717 785.004 289C784.915 282.669 785 276.331 785 270C785 264.906 782.748 253.392 789.109 251.434M124.323 257.027C119.895 260.025 124.697 263.514 128.005 263.891C143.911 265.703 160.984 264 177 264C181.22 264 190.151 265.667 193.392 262.4C199.63 256.113 185.781 256 183 256L141 256C136.528 256 128.177 254.417 124.323 257.027z"/>
</svg>
